# xmcd
#
# Track frame offsets: 
#        160
#        15357
#        38390
#        55495
#        71950
#        91962
#        113440
#        133240
#        152750
#        171392
#        185750
#        202745
#
# Disc length: 2958 seconds
#
# Revision: 2
# Processed by: cddbd v1.5.2PL0 Copyright (c) Steve Scherf et al.
# Submitted via: ExactAudioCopy v0.99pb4
#
DISCID=9d0b8c0c
DTITLE=Слава Медяник - "Эх, жизнь моя..."
DYEAR=1997
DGENRE=Chanson
TTITLE0=Одиночество вдвоём
TTITLE1=Я тебя люблю
TTITLE2=Москва-товарная
TTITLE3=Зима
TTITLE4=Банкирша
TTITLE5=В балаганах...
TTITLE6=Потерялись ключи
TTITLE7=Любка
TTITLE8=Голубое такси
TTITLE9=Ревизор чужих квартир
TTITLE10=Хиросима
TTITLE11=Старое письмо
EXTD="Moscow Records" 1997 П.Ц. Русская изба. \n1997 студия "СОЮЗ". Пр
EXTD=оизведено в Швеции г.Стокгольм.
EXTT0=
EXTT1=
EXTT2=
EXTT3=
EXTT4=
EXTT5=
EXTT6=
EXTT7=
EXTT8=
EXTT9=
EXTT10=
EXTT11=
PLAYORDER=
